# xmcd CD database file
#
# Track frame offsets:
#	150
#	31697
#	54775
#	84665
#	115155
#	152982
#	187352
#	220255
#	259577
#	308777
#
# Disc length: 4507 seconds
#
# Revision: 0
# Processed by: cddbd v1.5PL3 Copyright (c) Steve Scherf et al.
# Submitted via: CDex 1.60beta1
#
DISCID=8211990a
DTITLE=Ruby Braff - Music for the Still of the Night 
DYEAR=2001
DGENRE=Jazz
TTITLE0=Thinking of You 
TTITLE1=Can't We Be Friends? 
TTITLE2=Willow Weep for Me 
TTITLE3=When It's Sleepy Time Down South 
TTITLE4=I Wished on the Moon 
TTITLE5=Linger Awhile 
TTITLE6=Looking at You 
TTITLE7=I Don't Stand a Ghost of a Chance With You 
TTITLE8=Fly Me to the Moon 
TTITLE9=These Foolish Things (Remind Me of You) 
EXTD=YEAR: 2001
EXTT0=
EXTT1=
EXTT2=
EXTT3=
EXTT4=
EXTT5=
EXTT6=
EXTT7=
EXTT8=
EXTT9=
PLAYORDER=
